<svg xmlns="http://www.w3.org/2000/svg" viewBox="0 0 1200 320" width="1200" height="320" role="img" aria-label="DracoLure — Dragon Vector Honeypot">
<defs>
  <linearGradient id="gold" x1="0" y1="0" x2="1" y2="1">
    <stop offset="0" stop-color="#ffe08a"/>
    <stop offset="0.45" stop-color="#f2c14e"/>
    <stop offset="0.8" stop-color="#d99e2b"/>
    <stop offset="1" stop-color="#b8860b"/>
  </linearGradient>
  <radialGradient id="bg" cx="0.32" cy="0.4" r="0.9">
    <stop offset="0" stop-color="#15171d"/>
    <stop offset="0.6" stop-color="#0c0d11"/>
    <stop offset="1" stop-color="#050506"/>
  </radialGradient>
  <linearGradient id="goldsoft" x1="0" y1="0" x2="0" y2="1">
    <stop offset="0" stop-color="#f2c14e"/>
    <stop offset="1" stop-color="#c9971f"/>
  </linearGradient>
</defs>
<rect width="1200" height="320" fill="url(#bg)"/>
<g fill="none" stroke="url(#goldsoft)" stroke-width="1.4">
<polygon points="21.0,-10.0 5.5,16.8 -25.5,16.8 -41.0,-10.0 -25.5,-36.8 5.5,-36.8" opacity="0.191"/>
<polygon points="21.0,48.9 5.5,75.7 -25.5,75.7 -41.0,48.9 -25.5,22.0 5.5,22.0" opacity="0.226"/>
<polygon points="21.0,107.8 5.5,134.6 -25.5,134.6 -41.0,107.8 -25.5,80.9 5.5,80.9" opacity="0.249"/>
<polygon points="21.0,166.7 5.5,193.5 -25.5,193.5 -41.0,166.7 -25.5,139.8 5.5,139.8" opacity="0.255"/>
<polygon points="21.0,225.6 5.5,252.4 -25.5,252.4 -41.0,225.6 -25.5,198.7 5.5,198.7" opacity="0.245"/>
<polygon points="21.0,284.4 5.5,311.3 -25.5,311.3 -41.0,284.4 -25.5,257.6 5.5,257.6" opacity="0.219"/>
<polygon points="21.0,343.3 5.5,370.2 -25.5,370.2 -41.0,343.3 -25.5,316.5 5.5,316.5" opacity="0.182"/>
<polygon points="72.0,19.4 56.5,46.3 25.5,46.3 10.0,19.4 25.5,-7.4 56.5,-7.4" opacity="0.256"/>
<polygon points="72.0,78.3 56.5,105.2 25.5,105.2 10.0,78.3 25.5,51.5 56.5,51.5" opacity="0.291"/>
<polygon points="72.0,137.2 56.5,164.1 25.5,164.1 10.0,137.2 25.5,110.4 56.5,110.4" opacity="0.311"/>
<polygon points="72.0,196.1 56.5,223.0 25.5,223.0 10.0,196.1 25.5,169.3 56.5,169.3" opacity="0.308"/>
<polygon points="72.0,255.0 56.5,281.9 25.5,281.9 10.0,255.0 25.5,228.2 56.5,228.2" opacity="0.285"/>
<polygon points="72.0,313.9 56.5,340.7 25.5,340.7 10.0,313.9 25.5,287.0 56.5,287.0" opacity="0.246"/>
<polygon points="123.0,-10.0 107.5,16.8 76.5,16.8 61.0,-10.0 76.5,-36.8 107.5,-36.8" opacity="0.270"/>
<polygon points="123.0,48.9 107.5,75.7 76.5,75.7 61.0,48.9 76.5,22.0 107.5,22.0" opacity="0.320"/>
<polygon points="123.0,107.8 107.5,134.6 76.5,134.6 61.0,107.8 76.5,80.9 107.5,80.9" opacity="0.357"/>
<polygon points="123.0,166.7 107.5,193.5 76.5,193.5 61.0,166.7 76.5,139.8 107.5,139.8" opacity="0.369"/>
<polygon points="123.0,225.6 107.5,252.4 76.5,252.4 61.0,225.6 76.5,198.7 107.5,198.7" opacity="0.350"/>
<polygon points="123.0,284.4 107.5,311.3 76.5,311.3 61.0,284.4 76.5,257.6 107.5,257.6" opacity="0.309"/>
<polygon points="123.0,343.3 107.5,370.2 76.5,370.2 61.0,343.3 76.5,316.5 107.5,316.5" opacity="0.258"/>
<polygon points="174.0,19.4 158.5,46.3 127.5,46.3 112.0,19.4 127.5,-7.4 158.5,-7.4" opacity="0.327"/>
<polygon points="174.0,78.3 158.5,105.2 127.5,105.2 112.0,78.3 127.5,51.5 158.5,51.5" opacity="0.383"/>
<polygon points="174.0,137.2 158.5,164.1 127.5,164.1 112.0,137.2 127.5,110.4 158.5,110.4" opacity="0.421"/>
<polygon points="174.0,196.1 158.5,223.0 127.5,223.0 112.0,196.1 127.5,169.3 158.5,169.3" opacity="0.415"/>
<polygon points="174.0,255.0 158.5,281.9 127.5,281.9 112.0,255.0 127.5,228.2 158.5,228.2" opacity="0.371"/>
<polygon points="174.0,313.9 158.5,340.7 127.5,340.7 112.0,313.9 127.5,287.0 158.5,287.0" opacity="0.314"/>
<polygon points="225.0,-10.0 209.5,16.8 178.5,16.8 163.0,-10.0 178.5,-36.8 209.5,-36.8" opacity="0.310"/>
<polygon points="225.0,48.9 209.5,75.7 178.5,75.7 163.0,48.9 178.5,22.0 209.5,22.0" opacity="0.375"/>
<polygon points="225.0,107.8 209.5,134.6 178.5,134.6 163.0,107.8 178.5,80.9 209.5,80.9" opacity="0.439"/>
<polygon points="225.0,166.7 209.5,193.5 178.5,193.5 163.0,166.7 178.5,139.8 209.5,139.8" opacity="0.481"/>
<polygon points="225.0,225.6 209.5,252.4 178.5,252.4 163.0,225.6 178.5,198.7 209.5,198.7" opacity="0.425"/>
<polygon points="225.0,284.4 209.5,311.3 178.5,311.3 163.0,284.4 178.5,257.6 209.5,257.6" opacity="0.361"/>
<polygon points="225.0,343.3 209.5,370.2 178.5,370.2 163.0,343.3 178.5,316.5 209.5,316.5" opacity="0.296"/>
<polygon points="276.0,19.4 260.5,46.3 229.5,46.3 214.0,19.4 229.5,-7.4 260.5,-7.4" opacity="0.339"/>
<polygon points="276.0,78.3 260.5,105.2 229.5,105.2 214.0,78.3 229.5,51.5 260.5,51.5" opacity="0.401"/>
<polygon points="276.0,137.2 260.5,164.1 229.5,164.1 214.0,137.2 229.5,110.4 260.5,110.4" opacity="0.454"/>
<polygon points="276.0,196.1 260.5,223.0 229.5,223.0 214.0,196.1 229.5,169.3 260.5,169.3" opacity="0.444"/>
<polygon points="276.0,255.0 260.5,281.9 229.5,281.9 214.0,255.0 229.5,228.2 260.5,228.2" opacity="0.388"/>
<polygon points="276.0,313.9 260.5,340.7 229.5,340.7 214.0,313.9 229.5,287.0 260.5,287.0" opacity="0.325"/>
<polygon points="327.0,-10.0 311.5,16.8 280.5,16.8 265.0,-10.0 280.5,-36.8 311.5,-36.8" opacity="0.288"/>
<polygon points="327.0,48.9 311.5,75.7 280.5,75.7 265.0,48.9 280.5,22.0 311.5,22.0" opacity="0.344"/>
<polygon points="327.0,107.8 311.5,134.6 280.5,134.6 265.0,107.8 280.5,80.9 311.5,80.9" opacity="0.388"/>
<polygon points="327.0,166.7 311.5,193.5 280.5,193.5 265.0,166.7 280.5,139.8 311.5,139.8" opacity="0.404"/>
<polygon points="327.0,225.6 311.5,252.4 280.5,252.4 265.0,225.6 280.5,198.7 311.5,198.7" opacity="0.380"/>
<polygon points="327.0,284.4 311.5,311.3 280.5,311.3 265.0,284.4 280.5,257.6 311.5,257.6" opacity="0.332"/>
<polygon points="327.0,343.3 311.5,370.2 280.5,370.2 265.0,343.3 280.5,316.5 311.5,316.5" opacity="0.275"/>
<polygon points="378.0,19.4 362.5,46.3 331.5,46.3 316.0,19.4 331.5,-7.4 362.5,-7.4" opacity="0.282"/>
<polygon points="378.0,78.3 362.5,105.2 331.5,105.2 316.0,78.3 331.5,51.5 362.5,51.5" opacity="0.323"/>
<polygon points="378.0,137.2 362.5,164.1 331.5,164.1 316.0,137.2 331.5,110.4 362.5,110.4" opacity="0.346"/>
<polygon points="378.0,196.1 362.5,223.0 331.5,223.0 316.0,196.1 331.5,169.3 362.5,169.3" opacity="0.343"/>
<polygon points="378.0,255.0 362.5,281.9 331.5,281.9 316.0,255.0 331.5,228.2 362.5,228.2" opacity="0.315"/>
<polygon points="378.0,313.9 362.5,340.7 331.5,340.7 316.0,313.9 331.5,287.0 362.5,287.0" opacity="0.271"/>
<polygon points="429.0,-10.0 413.5,16.8 382.5,16.8 367.0,-10.0 382.5,-36.8 413.5,-36.8" opacity="0.218"/>
<polygon points="429.0,48.9 413.5,75.7 382.5,75.7 367.0,48.9 382.5,22.0 413.5,22.0" opacity="0.257"/>
<polygon points="429.0,107.8 413.5,134.6 382.5,134.6 367.0,107.8 382.5,80.9 413.5,80.9" opacity="0.283"/>
<polygon points="429.0,166.7 413.5,193.5 382.5,193.5 367.0,166.7 382.5,139.8 413.5,139.8" opacity="0.291"/>
<polygon points="429.0,225.6 413.5,252.4 382.5,252.4 367.0,225.6 382.5,198.7 413.5,198.7" opacity="0.279"/>
<polygon points="429.0,284.4 413.5,311.3 382.5,311.3 367.0,284.4 382.5,257.6 413.5,257.6" opacity="0.249"/>
<polygon points="429.0,343.3 413.5,370.2 382.5,370.2 367.0,343.3 382.5,316.5 413.5,316.5" opacity="0.208"/>
<polygon points="480.0,19.4 464.5,46.3 433.5,46.3 418.0,19.4 433.5,-7.4 464.5,-7.4" opacity="0.192"/>
<polygon points="480.0,78.3 464.5,105.2 433.5,105.2 418.0,78.3 433.5,51.5 464.5,51.5" opacity="0.219"/>
<polygon points="480.0,137.2 464.5,164.1 433.5,164.1 418.0,137.2 433.5,110.4 464.5,110.4" opacity="0.233"/>
<polygon points="480.0,196.1 464.5,223.0 433.5,223.0 418.0,196.1 433.5,169.3 464.5,169.3" opacity="0.231"/>
<polygon points="480.0,255.0 464.5,281.9 433.5,281.9 418.0,255.0 433.5,228.2 464.5,228.2" opacity="0.214"/>
<polygon points="480.0,313.9 464.5,340.7 433.5,340.7 418.0,313.9 433.5,287.0 464.5,287.0" opacity="0.184"/>
<polygon points="531.0,-10.0 515.5,16.8 484.5,16.8 469.0,-10.0 484.5,-36.8 515.5,-36.8" opacity="0.126"/>
<polygon points="531.0,48.9 515.5,75.7 484.5,75.7 469.0,48.9 484.5,22.0 515.5,22.0" opacity="0.155"/>
<polygon points="531.0,107.8 515.5,134.6 484.5,134.6 469.0,107.8 484.5,80.9 515.5,80.9" opacity="0.031"/>
<polygon points="531.0,166.7 515.5,193.5 484.5,193.5 469.0,166.7 484.5,139.8 515.5,139.8" opacity="0.032"/>
<polygon points="531.0,225.6 515.5,252.4 484.5,252.4 469.0,225.6 484.5,198.7 515.5,198.7" opacity="0.031"/>
<polygon points="531.0,284.4 515.5,311.3 484.5,311.3 469.0,284.4 484.5,257.6 515.5,257.6" opacity="0.149"/>
<polygon points="531.0,343.3 515.5,370.2 484.5,370.2 469.0,343.3 484.5,316.5 515.5,316.5" opacity="0.119"/>
<polygon points="582.0,19.4 566.5,46.3 535.5,46.3 520.0,19.4 535.5,-7.4 566.5,-7.4" opacity="0.090"/>
<polygon points="582.0,78.3 566.5,105.2 535.5,105.2 520.0,78.3 535.5,51.5 566.5,51.5" opacity="0.020"/>
<polygon points="582.0,137.2 566.5,164.1 535.5,164.1 520.0,137.2 535.5,110.4 566.5,110.4" opacity="0.022"/>
<polygon points="582.0,196.1 566.5,223.0 535.5,223.0 520.0,196.1 535.5,169.3 566.5,169.3" opacity="0.021"/>
<polygon points="582.0,255.0 566.5,281.9 535.5,281.9 520.0,255.0 535.5,228.2 566.5,228.2" opacity="0.107"/>
<polygon points="582.0,313.9 566.5,340.7 535.5,340.7 520.0,313.9 535.5,287.0 566.5,287.0" opacity="0.084"/>
<polygon points="633.0,-10.0 617.5,16.8 586.5,16.8 571.0,-10.0 586.5,-36.8 617.5,-36.8" opacity="0.050"/>
<polygon points="633.0,48.9 617.5,75.7 586.5,75.7 571.0,48.9 586.5,22.0 617.5,22.0" opacity="0.050"/>
<polygon points="633.0,107.8 617.5,134.6 586.5,134.6 571.0,107.8 586.5,80.9 617.5,80.9" opacity="0.011"/>
<polygon points="633.0,166.7 617.5,193.5 586.5,193.5 571.0,166.7 586.5,139.8 617.5,139.8" opacity="0.012"/>
<polygon points="633.0,225.6 617.5,252.4 586.5,252.4 571.0,225.6 586.5,198.7 617.5,198.7" opacity="0.011"/>
<polygon points="633.0,284.4 617.5,311.3 586.5,311.3 571.0,284.4 586.5,257.6 617.5,257.6" opacity="0.050"/>
<polygon points="633.0,343.3 617.5,370.2 586.5,370.2 571.0,343.3 586.5,316.5 617.5,316.5" opacity="0.050"/>
<polygon points="684.0,19.4 668.5,46.3 637.5,46.3 622.0,19.4 637.5,-7.4 668.5,-7.4" opacity="0.050"/>
<polygon points="684.0,78.3 668.5,105.2 637.5,105.2 622.0,78.3 637.5,51.5 668.5,51.5" opacity="0.009"/>
<polygon points="684.0,137.2 668.5,164.1 637.5,164.1 622.0,137.2 637.5,110.4 668.5,110.4" opacity="0.009"/>
<polygon points="684.0,196.1 668.5,223.0 637.5,223.0 622.0,196.1 637.5,169.3 668.5,169.3" opacity="0.009"/>
<polygon points="684.0,255.0 668.5,281.9 637.5,281.9 622.0,255.0 637.5,228.2 668.5,228.2" opacity="0.050"/>
<polygon points="684.0,313.9 668.5,340.7 637.5,340.7 622.0,313.9 637.5,287.0 668.5,287.0" opacity="0.050"/>
<polygon points="735.0,-10.0 719.5,16.8 688.5,16.8 673.0,-10.0 688.5,-36.8 719.5,-36.8" opacity="0.050"/>
<polygon points="735.0,48.9 719.5,75.7 688.5,75.7 673.0,48.9 688.5,22.0 719.5,22.0" opacity="0.050"/>
<polygon points="735.0,107.8 719.5,134.6 688.5,134.6 673.0,107.8 688.5,80.9 719.5,80.9" opacity="0.009"/>
<polygon points="735.0,166.7 719.5,193.5 688.5,193.5 673.0,166.7 688.5,139.8 719.5,139.8" opacity="0.009"/>
<polygon points="735.0,225.6 719.5,252.4 688.5,252.4 673.0,225.6 688.5,198.7 719.5,198.7" opacity="0.009"/>
<polygon points="735.0,284.4 719.5,311.3 688.5,311.3 673.0,284.4 688.5,257.6 719.5,257.6" opacity="0.050"/>
<polygon points="735.0,343.3 719.5,370.2 688.5,370.2 673.0,343.3 688.5,316.5 719.5,316.5" opacity="0.050"/>
<polygon points="786.0,19.4 770.5,46.3 739.5,46.3 724.0,19.4 739.5,-7.4 770.5,-7.4" opacity="0.050"/>
<polygon points="786.0,78.3 770.5,105.2 739.5,105.2 724.0,78.3 739.5,51.5 770.5,51.5" opacity="0.009"/>
<polygon points="786.0,137.2 770.5,164.1 739.5,164.1 724.0,137.2 739.5,110.4 770.5,110.4" opacity="0.009"/>
<polygon points="786.0,196.1 770.5,223.0 739.5,223.0 724.0,196.1 739.5,169.3 770.5,169.3" opacity="0.009"/>
<polygon points="786.0,255.0 770.5,281.9 739.5,281.9 724.0,255.0 739.5,228.2 770.5,228.2" opacity="0.050"/>
<polygon points="786.0,313.9 770.5,340.7 739.5,340.7 724.0,313.9 739.5,287.0 770.5,287.0" opacity="0.050"/>
<polygon points="837.0,-10.0 821.5,16.8 790.5,16.8 775.0,-10.0 790.5,-36.8 821.5,-36.8" opacity="0.050"/>
<polygon points="837.0,48.9 821.5,75.7 790.5,75.7 775.0,48.9 790.5,22.0 821.5,22.0" opacity="0.050"/>
<polygon points="837.0,107.8 821.5,134.6 790.5,134.6 775.0,107.8 790.5,80.9 821.5,80.9" opacity="0.009"/>
<polygon points="837.0,166.7 821.5,193.5 790.5,193.5 775.0,166.7 790.5,139.8 821.5,139.8" opacity="0.009"/>
<polygon points="837.0,225.6 821.5,252.4 790.5,252.4 775.0,225.6 790.5,198.7 821.5,198.7" opacity="0.009"/>
<polygon points="837.0,284.4 821.5,311.3 790.5,311.3 775.0,284.4 790.5,257.6 821.5,257.6" opacity="0.050"/>
<polygon points="837.0,343.3 821.5,370.2 790.5,370.2 775.0,343.3 790.5,316.5 821.5,316.5" opacity="0.050"/>
<polygon points="888.0,19.4 872.5,46.3 841.5,46.3 826.0,19.4 841.5,-7.4 872.5,-7.4" opacity="0.050"/>
<polygon points="888.0,78.3 872.5,105.2 841.5,105.2 826.0,78.3 841.5,51.5 872.5,51.5" opacity="0.009"/>
<polygon points="888.0,137.2 872.5,164.1 841.5,164.1 826.0,137.2 841.5,110.4 872.5,110.4" opacity="0.009"/>
<polygon points="888.0,196.1 872.5,223.0 841.5,223.0 826.0,196.1 841.5,169.3 872.5,169.3" opacity="0.009"/>
<polygon points="888.0,255.0 872.5,281.9 841.5,281.9 826.0,255.0 841.5,228.2 872.5,228.2" opacity="0.050"/>
<polygon points="888.0,313.9 872.5,340.7 841.5,340.7 826.0,313.9 841.5,287.0 872.5,287.0" opacity="0.050"/>
<polygon points="939.0,-10.0 923.5,16.8 892.5,16.8 877.0,-10.0 892.5,-36.8 923.5,-36.8" opacity="0.050"/>
<polygon points="939.0,48.9 923.5,75.7 892.5,75.7 877.0,48.9 892.5,22.0 923.5,22.0" opacity="0.050"/>
<polygon points="939.0,107.8 923.5,134.6 892.5,134.6 877.0,107.8 892.5,80.9 923.5,80.9" opacity="0.009"/>
<polygon points="939.0,166.7 923.5,193.5 892.5,193.5 877.0,166.7 892.5,139.8 923.5,139.8" opacity="0.009"/>
<polygon points="939.0,225.6 923.5,252.4 892.5,252.4 877.0,225.6 892.5,198.7 923.5,198.7" opacity="0.009"/>
<polygon points="939.0,284.4 923.5,311.3 892.5,311.3 877.0,284.4 892.5,257.6 923.5,257.6" opacity="0.050"/>
<polygon points="939.0,343.3 923.5,370.2 892.5,370.2 877.0,343.3 892.5,316.5 923.5,316.5" opacity="0.050"/>
<polygon points="990.0,19.4 974.5,46.3 943.5,46.3 928.0,19.4 943.5,-7.4 974.5,-7.4" opacity="0.050"/>
<polygon points="990.0,78.3 974.5,105.2 943.5,105.2 928.0,78.3 943.5,51.5 974.5,51.5" opacity="0.009"/>
<polygon points="990.0,137.2 974.5,164.1 943.5,164.1 928.0,137.2 943.5,110.4 974.5,110.4" opacity="0.009"/>
<polygon points="990.0,196.1 974.5,223.0 943.5,223.0 928.0,196.1 943.5,169.3 974.5,169.3" opacity="0.009"/>
<polygon points="990.0,255.0 974.5,281.9 943.5,281.9 928.0,255.0 943.5,228.2 974.5,228.2" opacity="0.050"/>
<polygon points="990.0,313.9 974.5,340.7 943.5,340.7 928.0,313.9 943.5,287.0 974.5,287.0" opacity="0.050"/>
<polygon points="1041.0,-10.0 1025.5,16.8 994.5,16.8 979.0,-10.0 994.5,-36.8 1025.5,-36.8" opacity="0.050"/>
<polygon points="1041.0,48.9 1025.5,75.7 994.5,75.7 979.0,48.9 994.5,22.0 1025.5,22.0" opacity="0.050"/>
<polygon points="1041.0,107.8 1025.5,134.6 994.5,134.6 979.0,107.8 994.5,80.9 1025.5,80.9" opacity="0.009"/>
<polygon points="1041.0,166.7 1025.5,193.5 994.5,193.5 979.0,166.7 994.5,139.8 1025.5,139.8" opacity="0.009"/>
<polygon points="1041.0,225.6 1025.5,252.4 994.5,252.4 979.0,225.6 994.5,198.7 1025.5,198.7" opacity="0.009"/>
<polygon points="1041.0,284.4 1025.5,311.3 994.5,311.3 979.0,284.4 994.5,257.6 1025.5,257.6" opacity="0.050"/>
<polygon points="1041.0,343.3 1025.5,370.2 994.5,370.2 979.0,343.3 994.5,316.5 1025.5,316.5" opacity="0.050"/>
<polygon points="1092.0,19.4 1076.5,46.3 1045.5,46.3 1030.0,19.4 1045.5,-7.4 1076.5,-7.4" opacity="0.050"/>
<polygon points="1092.0,78.3 1076.5,105.2 1045.5,105.2 1030.0,78.3 1045.5,51.5 1076.5,51.5" opacity="0.009"/>
<polygon points="1092.0,137.2 1076.5,164.1 1045.5,164.1 1030.0,137.2 1045.5,110.4 1076.5,110.4" opacity="0.009"/>
<polygon points="1092.0,196.1 1076.5,223.0 1045.5,223.0 1030.0,196.1 1045.5,169.3 1076.5,169.3" opacity="0.009"/>
<polygon points="1092.0,255.0 1076.5,281.9 1045.5,281.9 1030.0,255.0 1045.5,228.2 1076.5,228.2" opacity="0.050"/>
<polygon points="1092.0,313.9 1076.5,340.7 1045.5,340.7 1030.0,313.9 1045.5,287.0 1076.5,287.0" opacity="0.050"/>
<polygon points="1143.0,-10.0 1127.5,16.8 1096.5,16.8 1081.0,-10.0 1096.5,-36.8 1127.5,-36.8" opacity="0.050"/>
<polygon points="1143.0,48.9 1127.5,75.7 1096.5,75.7 1081.0,48.9 1096.5,22.0 1127.5,22.0" opacity="0.050"/>
<polygon points="1143.0,107.8 1127.5,134.6 1096.5,134.6 1081.0,107.8 1096.5,80.9 1127.5,80.9" opacity="0.009"/>
<polygon points="1143.0,166.7 1127.5,193.5 1096.5,193.5 1081.0,166.7 1096.5,139.8 1127.5,139.8" opacity="0.009"/>
<polygon points="1143.0,225.6 1127.5,252.4 1096.5,252.4 1081.0,225.6 1096.5,198.7 1127.5,198.7" opacity="0.009"/>
<polygon points="1143.0,284.4 1127.5,311.3 1096.5,311.3 1081.0,284.4 1096.5,257.6 1127.5,257.6" opacity="0.050"/>
<polygon points="1143.0,343.3 1127.5,370.2 1096.5,370.2 1081.0,343.3 1096.5,316.5 1127.5,316.5" opacity="0.050"/>
<polygon points="1194.0,19.4 1178.5,46.3 1147.5,46.3 1132.0,19.4 1147.5,-7.4 1178.5,-7.4" opacity="0.050"/>
<polygon points="1194.0,78.3 1178.5,105.2 1147.5,105.2 1132.0,78.3 1147.5,51.5 1178.5,51.5" opacity="0.009"/>
<polygon points="1194.0,137.2 1178.5,164.1 1147.5,164.1 1132.0,137.2 1147.5,110.4 1178.5,110.4" opacity="0.009"/>
<polygon points="1194.0,196.1 1178.5,223.0 1147.5,223.0 1132.0,196.1 1147.5,169.3 1178.5,169.3" opacity="0.009"/>
<polygon points="1194.0,255.0 1178.5,281.9 1147.5,281.9 1132.0,255.0 1147.5,228.2 1178.5,228.2" opacity="0.050"/>
<polygon points="1194.0,313.9 1178.5,340.7 1147.5,340.7 1132.0,313.9 1147.5,287.0 1178.5,287.0" opacity="0.050"/>
<polygon points="1245.0,-10.0 1229.5,16.8 1198.5,16.8 1183.0,-10.0 1198.5,-36.8 1229.5,-36.8" opacity="0.050"/>
<polygon points="1245.0,48.9 1229.5,75.7 1198.5,75.7 1183.0,48.9 1198.5,22.0 1229.5,22.0" opacity="0.050"/>
<polygon points="1245.0,107.8 1229.5,134.6 1198.5,134.6 1183.0,107.8 1198.5,80.9 1229.5,80.9" opacity="0.009"/>
<polygon points="1245.0,166.7 1229.5,193.5 1198.5,193.5 1183.0,166.7 1198.5,139.8 1229.5,139.8" opacity="0.009"/>
<polygon points="1245.0,225.6 1229.5,252.4 1198.5,252.4 1183.0,225.6 1198.5,198.7 1229.5,198.7" opacity="0.009"/>
<polygon points="1245.0,284.4 1229.5,311.3 1198.5,311.3 1183.0,284.4 1198.5,257.6 1229.5,257.6" opacity="0.050"/>
<polygon points="1245.0,343.3 1229.5,370.2 1198.5,370.2 1183.0,343.3 1198.5,316.5 1229.5,316.5" opacity="0.050"/>
</g>
<g>
<polygon points="320.0,160.0 260.0,263.9 140.0,263.9 80.0,160.0 140.0,56.1 260.0,56.1" fill="none" stroke="url(#gold)" stroke-width="6" opacity="0.2" stroke-linejoin="round"/>
<polygon points="310.0,160.0 255.0,255.3 145.0,255.3 90.0,160.0 145.0,64.7 255.0,64.7" fill="none" stroke="url(#gold)" stroke-width="4" opacity="0.35" stroke-linejoin="round"/>
<polygon points="300.0,160.0 250.0,246.6 150.0,246.6 100.0,160.0 150.0,73.4 250.0,73.4" fill="none" stroke="url(#gold)" stroke-width="5" opacity="0.9" stroke-linejoin="round"/>
<polygon points="284.0,160.0 242.0,232.7 158.0,232.7 116.0,160.0 158.0,87.3 242.0,87.3" fill="#0b0c10" stroke="url(#gold)" stroke-width="2" opacity="0.9"/>
<path d="M158 114 L242 114 L242 166 Q242 212 200 230 Q158 212 158 166 Z" fill="none" stroke="url(#gold)" stroke-width="4" stroke-linejoin="round"/>
<circle cx="200" cy="152" r="12" fill="url(#gold)"/>
<path d="M195 158 L205 158 L209 190 L191 190 Z" fill="url(#gold)"/>
</g>
<text x="470" y="150" font-family="Segoe UI, Helvetica, Arial, sans-serif" font-size="72" font-weight="800" fill="url(#gold)" letter-spacing="2">DRACOLURE</text>
<text x="472" y="205" font-family="Segoe UI, Helvetica, Arial, sans-serif" font-size="30" font-weight="600" fill="#e8d9a8" letter-spacing="4">DRAGON VECTOR HONEYPOT</text>
<rect x="472" y="222" width="360" height="3" fill="url(#gold)"/>
<text x="472" y="256" font-family="Segoe UI, Helvetica, Arial, sans-serif" font-size="17" fill="#b9a86a" letter-spacing="1">Deception · Detection · Quarantine</text>
<text x="472" y="280" font-family="Consolas, Menlo, monospace" font-size="14" fill="#8a7c4f">Flask · Go · C++ · nginx · Postgres · Prometheus · Grafana</text>
</svg>